<svg xmlns="http://www.w3.org/2000/svg" viewBox="0 0 720 480" role="img" aria-labelledby="title desc">
    <title id="title">Compress Multi</title>
    <desc id="desc">Multi-format compression logo with PDF, image, and archive flow.</desc>
    <defs>
        <linearGradient id="bg" x1="0" y1="0" x2="1" y2="1">
            <stop offset="0" stop-color="#2b160f" />
            <stop offset="1" stop-color="#0f172a" />
        </linearGradient>
        <linearGradient id="accent" x1="0" y1="0" x2="1" y2="1">
            <stop offset="0" stop-color="#fb923c" />
            <stop offset="1" stop-color="#f59e0b" />
        </linearGradient>
    </defs>
    <rect width="720" height="480" rx="48" fill="url(#bg)" />
    <rect x="54" y="54" width="612" height="372" rx="34" fill="#0b1220" stroke="#2d3949" stroke-width="4" />

    <rect x="112" y="124" width="122" height="156" rx="20" fill="#111827" stroke="#fb923c" stroke-width="8" />
    <path d="M144 164h56" stroke="#ffedd5" stroke-width="12" stroke-linecap="round" />
    <path d="M144 198h44" stroke="#fdba74" stroke-width="12" stroke-linecap="round" />
    <path d="M144 232h36" stroke="#fb923c" stroke-width="12" stroke-linecap="round" />
    <text x="145" y="262" fill="#fed7aa" font-size="34" font-family="Arial, sans-serif" font-weight="700">PDF</text>

    <rect x="258" y="150" width="138" height="104" rx="22" fill="none" stroke="url(#accent)" stroke-width="10" />
    <circle cx="296" cy="184" r="12" fill="#fbbf24" />
    <path d="M286 232l26-28 24 20 16-14 20 22" fill="none" stroke="#fde68a" stroke-width="10" stroke-linecap="round"
        stroke-linejoin="round" />

    <path d="M420 168h72" fill="none" stroke="#e2e8f0" stroke-width="14" stroke-linecap="round" />
    <path d="M470 142l28 26-28 26" fill="none" stroke="#e2e8f0" stroke-width="14" stroke-linecap="round"
        stroke-linejoin="round" />
    <path d="M420 236h72" fill="none" stroke="url(#accent)" stroke-width="14" stroke-linecap="round" />
    <path d="M470 210l28 26-28 26" fill="none" stroke="url(#accent)" stroke-width="14" stroke-linecap="round"
        stroke-linejoin="round" />

    <rect x="520" y="144" width="104" height="150" rx="24" fill="#111827" stroke="#f59e0b" stroke-width="10" />
    <path d="M552 184h40" stroke="#ffedd5" stroke-width="12" stroke-linecap="round" />
    <path d="M552 216h28" stroke="#fdba74" stroke-width="12" stroke-linecap="round" />
    <path d="M546 252h52" stroke="#fbbf24" stroke-width="14" stroke-linecap="round" />
    <path d="M562 228v48" stroke="#fbbf24" stroke-width="14" stroke-linecap="round" />

    <rect x="180" y="324" width="364" height="56" rx="28" fill="#141c2c" stroke="#334155" stroke-width="4" />
    <circle cx="216" cy="352" r="10" fill="#fb923c" />
    <circle cx="248" cy="352" r="10" fill="#fbbf24" />
    <circle cx="280" cy="352" r="10" fill="#fde68a" />
    <path d="M326 352h172" stroke="#94a3b8" stroke-width="12" stroke-linecap="round" />
</svg>