<svg xmlns="http://www.w3.org/2000/svg" viewBox="0 0 720 480" role="img" aria-labelledby="title desc">
  <title id="title">Screenshot API</title>
  <desc id="desc">Browser window and capture target logo.</desc>
  <defs>
    <linearGradient id="bg" x1="0" y1="0" x2="1" y2="1">
      <stop offset="0" stop-color="#241b0f"/>
      <stop offset="1" stop-color="#0f172a"/>
    </linearGradient>
    <linearGradient id="accent" x1="0" y1="0" x2="1" y2="1">
      <stop offset="0" stop-color="#fbbf24"/>
      <stop offset="1" stop-color="#fb7185"/>
    </linearGradient>
  </defs>
  <rect width="720" height="480" rx="48" fill="url(#bg)"/>
  <rect x="56" y="56" width="608" height="368" rx="32" fill="#0b1220" stroke="#334155" stroke-width="4"/>
  <rect x="56" y="56" width="608" height="62" rx="32" fill="#111827"/>
  <circle cx="98" cy="87" r="9" fill="#fb7185"/>
  <circle cx="128" cy="87" r="9" fill="#fbbf24"/>
  <circle cx="158" cy="87" r="9" fill="#22c55e"/>
  <rect x="112" y="156" width="308" height="176" rx="28" fill="none" stroke="url(#accent)" stroke-width="12"/>
  <path d="M146 190h84" stroke="#fde68a" stroke-width="12" stroke-linecap="round"/>
  <path d="M146 228h140" stroke="#fff7ed" stroke-width="12" stroke-linecap="round"/>
  <path d="M146 266h110" stroke="#fdba74" stroke-width="12" stroke-linecap="round"/>
  <circle cx="512" cy="226" r="54" fill="none" stroke="#fbbf24" stroke-width="14"/>
  <path d="M512 184v26" stroke="#fff7ed" stroke-width="12" stroke-linecap="round"/>
  <path d="M512 248v26" stroke="#fff7ed" stroke-width="12" stroke-linecap="round"/>
  <path d="M470 226h26" stroke="#fff7ed" stroke-width="12" stroke-linecap="round"/>
  <path d="M528 226h26" stroke="#fff7ed" stroke-width="12" stroke-linecap="round"/>
  <path d="M486 200l18 18" stroke="#fb7185" stroke-width="12" stroke-linecap="round" stroke-linejoin="round"/>
  <path d="M486 252l18-18" stroke="#fb7185" stroke-width="12" stroke-linecap="round" stroke-linejoin="round"/>
</svg>